<?xml version="1.0" standalone="no"?>
<!DOCTYPE svg PUBLIC "-//W3C//DTD SVG 20010904//EN"
 "http://www.w3.org/TR/2001/REC-SVG-20010904/DTD/svg10.dtd">
<svg version="1.0" xmlns="http://www.w3.org/2000/svg"
 width="1153.000000pt" height="1024.000000pt" viewBox="0 0 1153.000000 1024.000000"
 preserveAspectRatio="xMidYMid meet">

<g transform="translate(0.000000,1024.000000) scale(0.100000,-0.100000)"
fill="#000000" stroke="none">
<path d="M91 10231 c-11 -7 -11 -18 -2 -60 15 -73 16 -71 -39 -71 l-50 0 0
-975 0 -975 380 0 380 0 0 -3045 0 -3045 -380 0 -380 0 0 -1030 0 -1030 2560
0 2560 0 -2 1028 -3 1027 -387 3 -388 2 0 1110 0 1110 548 0 549 0 716 -1105
c395 -608 717 -1107 717 -1110 0 -3 -178 -5 -395 -5 l-395 0 0 -1030 0 -1030
2720 0 2720 0 -2 1028 -3 1027 -504 5 -504 5 -858 1324 c-473 728 -859 1327
-859 1330 0 3 26 21 57 40 30 19 108 73 172 121 630 471 1043 1162 1161 1945
27 178 38 540 21 711 -49 496 -214 966 -480 1365 -300 451 -689 795 -1166
1029 -355 175 -694 268 -1089 300 -160 12 -7355 14 -7375 1z m6322 -2108 c205
-58 377 -185 492 -362 150 -232 191 -553 104 -816 -97 -293 -352 -531 -669
-627 l-75 -23 -962 -3 -963 -3 0 931 0 931 998 -3 c995 -3 997 -3 1075 -25z"/>
</g>
</svg>
